Coordinates
version=1
nRows=17
nColumns=40
inDegrees=yes

Units are S.I. units (second, meters, Newtons, ...)
Angles are in degrees.

endheader
time	pelvis_tilt	pelvis_list	pelvis_rotation	pelvis_tx	pelvis_ty	pelvis_tz	hip_flexion_r	hip_adduction_r	hip_rotation_r	knee_angle_r	knee_angle_r_beta	ankle_angle_r	subtalar_angle_r	mtp_angle_r	hip_flexion_l	hip_adduction_l	hip_rotation_l	knee_angle_l	knee_angle_l_beta	ankle_angle_l	subtalar_angle_l	mtp_angle_l	lumbar_extension	lumbar_bending	lumbar_rotation	arm_flex_r	arm_add_r	arm_rot_r	elbow_flex_r	pro_sup_r	wrist_flex_r	wrist_dev_r	arm_flex_l	arm_add_l	arm_rot_l	elbow_flex_l	pro_sup_l	wrist_flex_l	wrist_dev_l
      1.58000000	      0.83472783	      1.25713763	     -0.12170928	      0.08769056	      0.88993000	      0.99448870	     -6.52570229	     -2.98542444	    -10.95170845	    -34.41388150	     -0.60063554	      0.61972667	      0.56652577	     -4.71583082	     16.00639167	     -2.38145457	     12.45454246	    -14.56001190	     -0.25412015	     -3.86803335	     -2.16929340	     -9.08271302	     -8.21909469	     -0.89298308	      3.35216105	      9.67137263	     -8.58073270	     15.89940114	     19.28123511	     89.95437384	      0.00000000	      0.00000000	     -1.67674580	      5.84516228	    -14.00955854	     12.05995654	     89.95437384	      0.00000000	      0.00000000
      1.59000000	      0.47379225	      1.62063375	     -0.09935635	      0.09562421	      0.89046993	      0.99296105	     -5.30687167	     -3.65622297	    -10.78922322	    -36.36029851	     -0.63460693	     -1.69446015	     -0.26619066	     -4.00513281	     15.62639681	     -2.90273241	     12.82240672	    -14.16085529	     -0.24715355	     -3.68262918	     -2.49611648	     -8.70698570	     -7.74973120	     -1.28559065	      3.03661275	      9.14210694	     -8.39214627	     15.79659180	     19.04031883	     89.95437384	      0.00000000	      0.00000000	     -1.66198607	      6.06893015	    -14.71530665	     12.38840551	     89.95437384	      0.00000000	      0.00000000
      1.60000000	      0.22766060	      1.75979115	     -0.22118975	      0.10332906	      0.89092047	      0.99177122	     -4.06604443	     -4.10524257	    -10.58816569	    -38.42606246	     -0.67066131	     -3.84959597	     -1.21679544	     -3.00811394	     15.22643668	     -3.11678994	     13.11233371	    -13.98673872	     -0.24411464	     -3.43374612	     -2.90586081	     -8.21810305	     -7.41138516	     -1.42751342	      2.88068310	      8.66221371	     -8.28739842	     15.72195385	     18.85090681	     89.95437384	      0.00000000	      0.00000000	     -1.48280590	      6.22735142	    -15.61090068	     12.54188769	     89.95437384	      0.00000000	      0.00000000
      1.61000000	      0.03865594	      1.81099715	     -0.34137467	      0.11094803	      0.89124200	      0.99073722	     -2.84289046	     -4.35378620	    -10.15177948	    -40.42232643	     -0.70550269	     -6.14274226	     -2.02999057	      0.56075476	     14.87953307	     -3.17648819	     13.62315309	    -14.03977968	     -0.24504038	     -2.85584253	     -3.92425999	     -6.99720818	     -7.13364911	     -1.49193304	      2.78976188	      8.22904525	     -8.19987224	     15.73024318	     18.56144444	     89.95437384	      0.00000000	      0.00000000	     -1.34000341	      6.59007500	    -17.61594373	     13.00913217	     89.95437384	      0.00000000	      0.00000000
      1.62000000	     -0.01898797	      2.10469532	     -0.50801930	      0.11855349	      0.89149952	      0.98936309	     -1.67459510	     -4.99889719	     -9.81033432	    -42.49101105	     -0.74160805	     -9.07378346	     -2.47068346	      1.23580432	     14.27717082	     -3.59304727	     13.98929120	    -13.79934492	     -0.24084400	     -2.46343176	     -4.18586470	     -6.89598193	     -7.03548029	     -1.79731783	      2.59542100	      7.88346032	     -8.13026858	     15.84454464	     18.31544769	     89.95437384	      0.00000000	      0.00000000	     -1.11745816	      6.69098655	    -17.48088991	     13.27212246	     89.95437384	      0.00000000	      0.00000000
      1.63000000	     -0.04430546	      2.36700029	     -0.65767249	      0.12610346	      0.89160865	      0.98809082	     -0.53951753	     -5.57988794	     -9.42946853	    -44.43379201	     -0.77551597	    -12.12527732	     -3.13031109	      1.91350000	     13.69850173	     -3.97013639	     14.27796274	    -13.68680394	     -0.23887979	     -2.03697718	     -4.50525766	     -6.86808058	     -6.95976732	     -2.06597710	      2.45618961	      7.55013095	     -8.08095289	     16.02389669	     18.00277024	     89.95437384	      0.00000000	      0.00000000	     -0.82703540	      6.84330354	    -17.42964908	     13.59521198	     89.95437384	      0.00000000	      0.00000000
      1.64000000	      0.04392509	      2.61109893	     -0.74029458	      0.13361159	      0.89174176	      0.98689882	      0.46148571	     -6.07655130	     -8.98201677	    -46.30782768	     -0.80822406	    -15.12360294	     -3.73075819	      2.47528487	     13.02246952	     -4.30978593	     14.49671500	    -13.62908940	     -0.23787248	     -1.52410369	     -4.95893984	     -6.93035909	     -7.01145476	     -2.33164886	      2.17870611	      7.32430970	     -7.98961982	     16.19335280	     17.63719432	     89.95437384	      0.00000000	      0.00000000	     -0.43450383	      6.98648069	    -17.49229771	     13.73262157	     89.95437384	      0.00000000	      0.00000000
      1.65000000	      0.22540758	      2.85197285	     -0.85779544	      0.14078611	      0.89184491	      0.98587714	      1.44189591	     -6.54697899	     -8.48022247	    -48.25254953	     -0.84216586	    -17.38470355	     -4.22502871	      2.83255644	     12.32274354	     -4.62249530	     14.68763329	    -13.70930333	     -0.23927248	     -0.99726564	     -5.33144625	     -6.97479487	     -7.21046294	     -2.59661128	      2.01928295	      7.12966056	     -7.93848969	     16.39977988	     17.31178289	     89.95437384	      0.00000000	      0.00000000	      0.07140370	      7.17182151	    -17.54457353	     13.97476450	     89.95437384	      0.00000000	      0.00000000
      1.66000000	      0.19099657	      3.24518011	     -1.09188724	      0.14778147	      0.89146321	      0.98506625	      2.81794394	     -7.12034838	     -7.86657607	    -50.31976007	     -0.87824549	    -19.06310333	     -6.13784389	      3.49083392	     11.90565427	     -5.04306599	     15.23589215	    -13.80032416	     -0.24086109	     -0.72752567	     -5.77111398	     -6.93864964	     -7.14816888	     -3.05376232	      1.98443654	      6.85803694	     -7.94529816	     16.89305824	     17.16232369	     89.95437384	      0.00000000	      0.00000000	      0.50507155	      7.50050910	    -18.22739409	     14.39955990	     89.95437384	      0.00000000	      0.00000000
      1.67000000	      0.50759771	      3.56139403	     -1.17640738	      0.15506975	      0.89159664	      0.98412100	      3.61025683	     -7.69426883	     -7.65831237	    -52.06609439	     -0.90872478	    -19.53374860	     -6.78832922	      3.61517314	     11.02658691	     -5.46751279	     15.28609229	    -13.81751309	     -0.24116110	      0.04251399	     -6.13254085	     -7.02444428	     -7.45206881	     -3.41333401	      1.74868200	      6.72033049	     -7.86169939	     17.11185435	     16.80382456	     89.95437384	      0.00000000	      0.00000000	      1.06144101	      7.74984055	    -18.26393570	     14.67552989	     89.95437384	      0.00000000	      0.00000000
      1.68000000	      0.76139043	      3.92478148	     -1.28831350	      0.16206978	      0.89164808	      0.98327945	      4.55505975	     -8.27918962	     -7.44897943	    -53.81474018	     -0.93924440	    -19.02689138	     -8.00716610	      3.70306375	     10.17745105	     -5.96041835	     15.47058056	    -13.67617846	     -0.23869434	      0.51115365	     -6.34209840	     -7.04315819	     -7.70495825	     -3.83245366	      1.54373482	      6.60810513	     -7.78903120	     17.42962142	     16.49156813	     89.95437384	      0.00000000	      0.00000000	      1.62175560	      8.01329893	    -18.55670257	     14.95051278	     89.95437384	      0.00000000	      0.00000000
      1.69000000	      0.93718177	      4.25002168	     -1.46330117	      0.16898436	      0.89163146	      0.98254243	      5.62321384	     -8.75894044	     -7.17425317	    -55.46170360	     -0.96798934	    -17.93063807	     -9.79205352	      4.00577379	      9.43514624	     -6.41046933	     15.61337002	    -13.57496326	     -0.23692780	      0.82478396	     -6.27567009	     -6.95043427	     -7.85522955	     -4.20309783	      1.46542243	      6.38937365	     -7.85546906	     18.06022494	     16.42464010	     89.95437384	      0.00000000	      0.00000000	      2.21123676	      8.34236523	    -19.07091387	     15.35826336	     89.95437384	      0.00000000	      0.00000000
      1.70000000	      1.26760244	      4.40031804	     -1.46307577	      0.17601869	      0.89195292	      0.98170559	      6.36810894	     -9.08582529	     -7.21094911	    -56.77825552	     -0.99096750	    -16.24354037	    -10.95177780	      4.00742185	      8.53500067	     -6.68729171	     15.46026017	    -13.57125231	     -0.23686304	      1.48400142	     -6.49511790	     -6.99315648	     -8.16511722	     -4.37052539	      1.19290365	      6.30143632	     -7.80747042	     18.32777431	     16.05016220	     89.95437384	      0.00000000	      0.00000000	      2.91102304	      8.55687893	    -19.21593647	     15.50548285	     89.95437384	      0.00000000	      0.00000000
      1.71000000	      1.54317798	      4.53321666	     -1.50737634	      0.18290552	      0.89230050	      0.98087656	      7.18913071	     -9.30219995	     -7.10867010	    -57.91240479	     -1.01076214	    -14.28098527	    -12.34798867	      4.13494234	      7.68255383	     -6.96175616	     15.45067689	    -13.44680910	     -0.23469109	      1.94770748	     -6.46257444	     -6.95910636	     -8.43794100	     -4.51817045	      0.95814580	      6.18148285	     -7.84750371	     18.67839044	     15.87227038	     89.95437384	      0.00000000	      0.00000000	      3.53985410	      8.80983873	    -19.55677524	     15.80673875	     89.95437384	      0.00000000	      0.00000000
      1.72000000	      1.78700885	      4.55687371	     -1.55775282	      0.18982149	      0.89275561	      0.98017932	      8.03570130	     -9.43356863	     -7.12285904	    -58.81573753	     -1.02652827	    -12.39320231	    -13.65959446	      4.25267705	      6.85906950	     -7.10991499	     15.35917262	    -13.32717294	     -0.23260305	      2.36935248	     -6.49302309	     -6.95641059	     -8.61083807	     -4.53660471	      0.79850252	      6.04698716	     -7.89668923	     19.00477331	     15.61380186	     89.95437384	      0.00000000	      0.00000000	      4.25924716	      9.00753718	    -19.73784549	     15.96049529	     89.95437384	      0.00000000	      0.00000000
      1.73000000	      1.83219433	      4.54643040	     -1.58369574	      0.19621023	      0.89298898	      0.97950890	      9.21127200	     -9.35308971	     -6.90573776	    -59.65828581	     -1.04123351	    -10.48362177	    -15.06247638	      6.74760276	      6.29852681	     -7.28376908	     14.75632548	    -13.23796604	     -0.23104609	      2.92897389	     -5.54787736	     -6.62453852	     -8.63476350	     -4.52274036	      0.63728944	      5.83397644	     -8.21460172	     20.51933102	     15.77180728	     89.95437384	      0.00000000	      0.00000000	      4.91121731	      9.42457514	    -20.92259392	     16.46580024	     89.95437384	      0.00000000	      0.00000000
      1.74000000	      2.00128230	      4.41048356	     -1.53918200	      0.20302395	      0.89358781	      0.97881872	     10.01818950	     -9.19004059	     -6.92247062	    -59.98404303	     -1.04691905	     -8.71555730	    -15.73336031	      6.80734449	      5.54590997	     -7.24614957	     14.63323892	    -13.10263379	     -0.22868410	      3.36971121	     -5.68926591	     -6.63588734	     -8.73372264	     -4.35978845	      0.39738035	      5.73900695	     -8.24066314	     20.50998035	     15.45205874	     89.95437384	      0.00000000	      0.00000000	      5.64445465	      9.55028640	    -20.72976155	     16.55483156	     89.95437384	      0.00000000	      0.00000000
